HIERARCHY
ROOT hip
{
  OFFSET 0 0 0
  CHANNELS 6 Xposition Yposition Zposition Zrotation Yrotation Xrotation
  JOINT abdomen
  {
    OFFSET 0 20.6881 -0.73152
    CHANNELS 3 Zrotation Xrotation Yrotation
    JOINT chest
    {
      OFFSET 0 11.7043 -0.48768
      CHANNELS 3 Zrotation Xrotation Yrotation
      JOINT neck
      {
        OFFSET 0 22.1894 -2.19456
        CHANNELS 3 Zrotation Xrotation Yrotation
        JOINT head
        {
          OFFSET -0.24384 7.07133 1.2192
          CHANNELS 3 Zrotation Xrotation Yrotation
          JOINT leftEye
          {
            OFFSET 4.14528 8.04674 8.04672
            CHANNELS 3 Zrotation Xrotation Yrotation
            End Site
            {
              OFFSET 1 0 0
            }
          }
          JOINT rightEye
          {
            OFFSET -3.6576 8.04674 8.04672
            CHANNELS 3 Zrotation Xrotation Yrotation
            End Site
            {
              OFFSET 1 0 0
            }
          }
        }
      }
      JOINT rCollar
      {
        OFFSET -2.68224 19.2634 -4.8768
        CHANNELS 3 Zrotation Xrotation Yrotation
        JOINT rShldr
        {
          OFFSET -8.77824 -1.95073 1.46304
          CHANNELS 3 Zrotation Xrotation Yrotation
          JOINT rForeArm
          {
            OFFSET -28.1742 -1.7115 0.48768
            CHANNELS 3 Zrotation Xrotation Yrotation
            JOINT rHand
            {
              OFFSET -22.5879 0.773209 7.07136
              CHANNELS 3 Zrotation Xrotation Yrotation
              JOINT rThumb1
              {
                OFFSET -1.2192 -0.487915 3.41376
                CHANNELS 3 Zrotation Xrotation Yrotation
                JOINT rThumb2
                {
                  OFFSET -3.37035 -0.52449 3.41376
                  CHANNELS 3 Zrotation Xrotation Yrotation
                  End Site
                  {
                    OFFSET -1.78271 -1.18214 1.43049
                  }
                }
              }
              JOINT rIndex1
              {
                OFFSET -7.75947 0.938293 5.60832
                CHANNELS 3 Zrotation Xrotation Yrotation
                JOINT rIndex2
                {
                  OFFSET -2.54057 -0.884171 1.56538
                  CHANNELS 3 Zrotation Xrotation Yrotation
                  End Site
                  {
                    OFFSET -1.62519 -0.234802 1.16502
                  }
                }
              }
              JOINT rMid1
              {
                OFFSET -8.24714 1.18213 3.41376
                CHANNELS 3 Zrotation Xrotation Yrotation
                JOINT rMid2
                {
                  OFFSET -3.10165 -0.590103 1.0647
                  CHANNELS 3 Zrotation Xrotation Yrotation
                  End Site
                  {
                    OFFSET -2.48547 -0.328903 0.83742
                  }
                }
              }
              JOINT rRing1
              {
                OFFSET -8.82822 0.546677 1.51678
                CHANNELS 3 Zrotation Xrotation Yrotation
                JOINT rRing2
                {
                  OFFSET -2.60934 -0.819778 -0.0198488
                  CHANNELS 3 Zrotation Xrotation Yrotation
                  End Site
                  {
                    OFFSET -2.33842 -0.294052 0.168128
                  }
                }
              }
              JOINT rPinky1
              {
                OFFSET -8.27202 -0.0477905 -0.4584
                CHANNELS 3 Zrotation Xrotation Yrotation
                JOINT rPinky2
                {
                  OFFSET -1.82734 -0.647385 -0.700984
                  CHANNELS 3 Zrotation Xrotation Yrotation
                  End Site
                  {
                    OFFSET -1.69225 -0.51767 -0.607171
                  }
                }
              }
            }
          }
        }
      }
      JOINT lCollar
      {
        OFFSET 2.68224 19.2634 -4.8768
        CHANNELS 3 Zrotation Xrotation Yrotation
        JOINT lShldr
        {
          OFFSET 8.77824 -1.95073 1.46304
          CHANNELS 3 Zrotation Xrotation Yrotation
          JOINT lForeArm
          {
            OFFSET 28.1742 -1.7115 0.48768
            CHANNELS 3 Zrotation Xrotation Yrotation
            JOINT lHand
            {
              OFFSET 22.5879 0.773209 7.07136
              CHANNELS 3 Zrotation Xrotation Yrotation
              JOINT lThumb1
              {
                OFFSET 1.2192 -0.487915 3.41376
                CHANNELS 3 Zrotation Xrotation Yrotation
                JOINT lThumb2
                {
                  OFFSET 3.37035 -0.52449 3.41376
                  CHANNELS 3 Zrotation Xrotation Yrotation
                  End Site
                  {
                    OFFSET 1.78271 -1.18214 1.43049
                  }
                }
              }
              JOINT lIndex1
              {
                OFFSET 7.75947 0.938293 5.60832
                CHANNELS 3 Zrotation Xrotation Yrotation
                JOINT lIndex2
                {
                  OFFSET 2.54057 -0.884171 1.56538
                  CHANNELS 3 Zrotation Xrotation Yrotation
                  End Site
                  {
                    OFFSET 1.62519 -0.234802 1.16502
                  }
                }
              }
              JOINT lMid1
              {
                OFFSET 8.24714 1.18213 3.41376
                CHANNELS 3 Zrotation Xrotation Yrotation
                JOINT lMid2
                {
                  OFFSET 3.10165 -0.590103 1.0647
                  CHANNELS 3 Zrotation Xrotation Yrotation
                  End Site
                  {
                    OFFSET 2.48547 -0.328903 0.83742
                  }
                }
              }
              JOINT lRing1
              {
                OFFSET 8.82822 0.546677 1.51678
                CHANNELS 3 Zrotation Xrotation Yrotation
                JOINT lRing2
                {
                  OFFSET 2.60934 -0.819778 -0.0198488
                  CHANNELS 3 Zrotation Xrotation Yrotation
                  End Site
                  {
                    OFFSET 2.33842 -0.294052 0.168128
                  }
                }
              }
              JOINT lPinky1
              {
                OFFSET 8.27202 -0.0477905 -0.4584
                CHANNELS 3 Zrotation Xrotation Yrotation
                JOINT lPinky2
                {
                  OFFSET 1.82734 -0.647385 -0.700984
                  CHANNELS 3 Zrotation Xrotation Yrotation
                  End Site
                  {
                    OFFSET 1.69225 -0.51767 -0.607171
                  }
                }
              }
            }
          }
        }
      }
    }
  }
  JOINT rButtock
  {
    OFFSET -8.77824 4.35084 1.2192
    CHANNELS 3 Zrotation Xrotation Yrotation
    JOINT rThigh
    {
      OFFSET 0 -1.70687 -2.19456
      CHANNELS 3 Zrotation Xrotation Yrotation
      JOINT rShin
      {
        OFFSET 0 -36.8199 0.73152
        CHANNELS 3 Zrotation Xrotation Yrotation
        JOINT rFoot
        {
          OFFSET 0.73152 -45.1104 -5.12064
          CHANNELS 3 Zrotation Xrotation Yrotation
          End Site
          {
            OFFSET -1.1221 -3.69964 12.103
          }
        }
      }
    }
  }
  JOINT lButtock
  {
    OFFSET 8.77824 4.35084 1.2192
    CHANNELS 3 Zrotation Xrotation Yrotation
    JOINT lThigh
    {
      OFFSET 0 -1.70687 -2.19456
      CHANNELS 3 Zrotation Xrotation Yrotation
      JOINT lShin
      {
        OFFSET 0 -36.8199 0.73152
        CHANNELS 3 Zrotation Xrotation Yrotation
        JOINT lFoot
        {
          OFFSET -0.73152 -45.1104 -5.12064
          CHANNELS 3 Zrotation Xrotation Yrotation
          End Site
          {
            OFFSET 1.1221 -3.69964 12.103
          }
        }
      }
    }
  }
}
MOTION
Frames:	4
Frame Time:	0.00833333
16.6807 82.39 23.4957 -331.585 -87.2838 335.248 -6.68038 -1.39192 -17.6212 4.60189 -4.47376 -4.65372 -3.41837 -3.38306 -0.856225 8.53967 -10.9572 0.206665 -0.0 0.0 0.0 -0.0 0.0 0.0 -3.56021e-13 1.41278e-12 -1.35115e-13 82.2673 17.0495 -28.6239 -17.9842 -10.6665 33.9963 -0.00255821 -1.55724 -0.218956 3.18245e-09 3.1684e-09 1.59913e-09 5.5035e-09 5.4746e-09 2.77374e-09 3.18246e-09 3.16841e-09 1.59911e-09 7.73091 5.47488 0.417314 3.18245e-09 3.1684e-09 1.59913e-09 2.90554 0.965183 0.102902 3.18246e-09 3.1684e-09 1.59913e-09 10.2786 0.731801 0.0259123 3.18245e-09 3.1684e-09 1.59915e-09 2.22167 -0.733487 -0.20892 -3.56113e-13 1.41278e-12 -1.35437e-13 -55.7623 41.7617 -29.7206 24.209 -19.4923 -50.2801 0.0328565 -5.16378 0.727716 -2.82411e-10 -4.5435e-09 6.14831e-09 -5.25173e-10 -7.88474e-09 1.06366e-08 -2.82419e-10 -4.5435e-09 6.14832e-09 -7.73091 5.47488 -0.417314 -2.82411e-10 -4.5435e-09 6.14831e-09 -2.90554 0.965183 -0.102902 -2.82417e-10 -4.54349e-09 6.14831e-09 -10.2786 0.731801 -0.0259123 -2.82409e-10 -4.54349e-09 6.1483e-09 -2.22167 -0.733487 0.20892 -2.03217e-16 0.0 -3.88251e-19 -18.2631 -59.7421 -18.0532 -2.79442 53.9621 -7.0721 178.544 21.0454 -1.80965 2.03217e-16 0.0 3.88251e-19 -4.87034 6.23387 -4.43046 -0.503958 28.0343 -3.25565 0.161514 -10.6002 -10.6468
15.7342 82.1605 23.3085 -337.939 -87.0441 341.872 -6.61897 -1.97333 -17.4085 4.54165 -4.21145 -4.65013 -3.47195 -3.37717 -0.91569 8.40717 -10.9607 0.096965 -0.0 0.0 0.0 -0.0 0.0 0.0 -3.91552e-13 1.61493e-12 -1.14301e-13 82.954 17.7307 -28.2331 -18.4292 -11.1557 34.9903 -0.00782924 -2.52556 -0.355177 3.51123e-09 2.28837e-09 1.79263e-09 6.07108e-09 3.95084e-09 3.10944e-09 3.51124e-09 2.28837e-09 1.79261e-09 7.73091 5.47488 0.417314 3.51123e-09 2.28837e-09 1.79262e-09 2.90554 0.965183 0.102902 3.51124e-09 2.28837e-09 1.79263e-09 10.2786 0.731801 0.0259123 3.51123e-09 2.28837e-09 1.79265e-09 2.22167 -0.733487 -0.20892 -3.91636e-13 1.61493e-12 -1.14649e-13 -56.7852 42.7341 -28.5419 24.1685 -19.4153 -50.1469 0.0309637 -5.01647 0.706844 -8.97902e-11 -4.25659e-09 5.92415e-09 -1.91226e-10 -7.38812e-09 1.02492e-08 -8.97942e-11 -4.25659e-09 5.92415e-09 -7.73091 5.47488 -0.417314 -8.97902e-11 -4.25659e-09 5.92415e-09 -2.90554 0.965183 -0.102902 -8.97963e-11 -4.25658e-09 5.92415e-09 -10.2786 0.731801 -0.0259123 -8.97881e-11 -4.25658e-09 5.92414e-09 -2.22167 -0.733487 0.20892 -2.03217e-16 0.0 -3.88251e-19 -16.6743 -57.0907 -16.6684 -2.59237 51.9735 -7.87779 179.021 19.5508 -3.00117 2.03217e-16 0.0 3.88251e-19 -4.44148 6.10265 -4.42405 -0.48945 28.5374 -3.17337 0.192843 -9.90299 -11.0855
14.768 81.927 23.12 -343.052 -86.7713 347.243 -6.61714 -2.62836 -17.1753 4.48652 -3.90637 -4.64629 -3.52392 -3.3566 -0.974577 8.2302 -10.9032 -0.0218223 -0.0 0.0 0.0 -0.0 0.0 0.0 -3.2438e-13 1.35537e-12 -9.1941e-14 83.6433 18.4147 -27.8176 -18.8914 -11.68 36.048 -0.0145501 -3.50348 -0.492903 2.8686e-09 1.87577e-09 1.39813e-09 4.96053e-09 3.23984e-09 2.42456e-09 2.86861e-09 1.87578e-09 1.39812e-09 7.73091 5.47488 0.417314 2.8686e-09 1.87577e-09 1.39813e-09 2.90554 0.965183 0.102902 2.86861e-09 1.87577e-09 1.39813e-09 10.2786 0.731801 0.0259123 2.8686e-09 1.87577e-09 1.39815e-09 2.22167 -0.733487 -0.20892 -3.24449e-13 1.35537e-12 -9.22904e-14 -57.9293 43.7572 -27.1969 24.1111 -19.3059 -49.9648 0.0288247 -4.84472 0.68252 -5.30767e-11 -3.34789e-09 4.67981e-09 -1.20418e-10 -5.81144e-09 8.09685e-09 -5.30795e-11 -3.34789e-09 4.67982e-09 -7.73091 5.47488 -0.417314 -5.30773e-11 -3.34789e-09 4.67982e-09 -2.90554 0.965183 -0.102902 -5.30832e-11 -3.34788e-09 4.67981e-09 -10.2786 0.731801 -0.0259123 -5.30741e-11 -3.34788e-09 4.6798e-09 -2.22167 -0.733487 0.20892 -2.03217e-16 0.0 -3.88251e-19 -15.2093 -54.2627 -15.4398 -2.16033 49.4742 -8.37473 179.217 16.58 -4.36866 2.03217e-16 0.0 3.88251e-19 -4.03575 5.8486 -4.37726 -0.470069 29.2287 -3.07366 0.243002 -9.04841 -11.6216
13.7914 81.6931 22.9324 -346.963 -86.4841 351.406 -6.65056 -3.33985 -16.9223 4.43467 -3.56468 -4.64156 -3.57616 -3.32435 -1.03354 8.01934 -10.7997 -0.147959 -0.0 0.0 0.0 -0.0 0.0 0.0 -1.88389e-13 7.89823e-13 -6.42261e-14 84.3323 19.1061 -27.3716 -19.3656 -12.2321 37.1738 -0.0237627 -4.50525 -0.634342 1.57469e-09 1.65292e-09 6.23155e-10 2.72483e-09 2.85964e-09 1.07931e-09 1.57469e-09 1.65292e-09 6.23146e-10 7.73091 5.47488 0.417314 1.57469e-09 1.65292e-09 6.23151e-10 2.90554 0.965183 0.102902 1.57469e-09 1.65291e-09 6.23156e-10 10.2786 0.731801 0.0259123 1.57469e-09 1.65292e-09 6.23168e-10 2.22167 -0.733487 -0.20892 -1.88438e-13 7.89819e-13 -6.45615e-14 -59.2048 44.8218 -25.6893 24.0381 -19.167 -49.7386 0.0264532 -4.64163 0.653779 -1.12615e-10 -1.96592e-09 2.67875e-09 -2.11314e-10 -3.41278e-09 4.63522e-09 -1.12618e-10 -1.96591e-09 2.67876e-09 -7.73091 5.47488 -0.417314 -1.12617e-10 -1.96591e-09 2.67875e-09 -2.90554 0.965183 -0.102902 -1.12622e-10 -1.96591e-09 2.67875e-09 -10.2786 0.731801 -0.0259123 -1.12612e-10 -1.96591e-09 2.67874e-09 -2.22167 -0.733487 0.20892 -2.03217e-16 0.0 -3.88251e-19 -13.8426 -51.2734 -14.3418 -1.58867 46.6297 -8.72754 179.098 12.498 -5.91174 2.03217e-16 0.0 3.88251e-19 -3.6349 5.49633 -4.29812 -0.448908 30.0781 -2.95914 0.322506 -8.05361 -12.2326
